<?xml version="1.0" encoding="UTF-8" standalone="no"?>
<svg
   width="30.162224in"
   height="14.68149in"
   viewBox="0 0 766.12048 372.90985"
   version="1.1"
   id="svg970"
   inkscape:version="1.1-dev (b131190, 2020-10-24)"
   sodipodi:docname="cross-section.svg"
   xmlns:inkscape="http://www.inkscape.org/namespaces/inkscape"
   xmlns:sodipodi="http://sodipodi.sourceforge.net/DTD/sodipodi-0.dtd"
   xmlns="http://www.w3.org/2000/svg"
   xmlns:svg="http://www.w3.org/2000/svg">
  <defs
     id="defs966" />
  <sodipodi:namedview
     id="base"
     pagecolor="#ffffff"
     bordercolor="#666666"
     borderopacity="1.0"
     inkscape:pageopacity="0.0"
     inkscape:pageshadow="2"
     inkscape:zoom="0.35"
     inkscape:cx="1474.2857"
     inkscape:cy="670"
     inkscape:document-units="in"
     inkscape:current-layer="layer1"
     showgrid="false"
     inkscape:window-width="1920"
     inkscape:window-height="1001"
     inkscape:window-x="-9"
     inkscape:window-y="-9"
     inkscape:window-maximized="1"
     units="in" />
  <g
     inkscape:label="Layer 1"
     inkscape:groupmode="layer"
     id="layer1"
     transform="translate(120.74478,-13.872494)">
    <g
       id="use944"
       transform="rotate(11.841447,-15557.042,-1911.9095)">
      <path
         style="opacity:0.5;fill:#cccccc;stroke:#000000;stroke-width:0.264583px;stroke-linecap:butt;stroke-linejoin:miter;stroke-opacity:1"
         d="m 15.821071,-3209.1876 226.736469,-0.8994 53.24095,17.5086 18.91558,89.623 259.03634,-54.3372 -6.43117,-28.6479 33.51566,-13.3436 124.99294,-1.1015 -0.46509,11.9676 -5.96608,0.9657 0.49751,2.2551 8.53433,0.9287 6.11376,34.0169 -6.50425,2.4847 0.8039,3.8733 6.21192,-1.4616 5.77344,9.2813 -115.09603,50.6759 -33.77101,-2.1497 -248.76946,106.1144 1.46163,10.2314 -43.84891,40.0486 -206.674513,86.2362 -18.708867,-90.0364 12.277694,-2.9233 -92.3750307,-21.9244 -21.0474753,-101.7295 75.712446,-55.8343 -0.876978,-4.3849 -14.03165,3.2156 z"
         id="path1045"
         sodipodi:nodetypes="ccccccccccccccccccccccccccccccc" />
      <path
         style="fill:none;stroke:#000000;stroke-width:0.264583px;stroke-linecap:butt;stroke-linejoin:miter;stroke-opacity:1"
         d="m 259.66092,-3204.3775 46.40445,-6.8241 220.04612,0.9616 62.11727,16.1031"
         id="path1047"
         sodipodi:nodetypes="cccc" />
      <path
         style="fill:none;stroke:#000000;stroke-width:0.264583px;stroke-linecap:butt;stroke-linejoin:miter;stroke-opacity:1"
         d="m -12.403684,-3033.9626 731.800334,-153.4897 9.44527,43.5587 -732.0050374,153.6815 z"
         id="path1049"
         sodipodi:nodetypes="ccccc" />
    </g>
  </g>
</svg>
